<svg width="2209" height="2212" viewBox="0 0 2209 2212" fill="none" xmlns="http://www.w3.org/2000/svg">
<rect y="3" width="2209" height="2209" fill="black"/>
<path d="M1104.42 1749.34C1455.51 1749.34 1740.12 1464.72 1740.12 1113.64C1740.12 762.548 1455.51 477.935 1104.42 477.935C753.33 477.935 468.717 762.548 468.717 1113.64C468.717 1464.72 753.33 1749.34 1104.42 1749.34Z" fill="url(#paint0_linear_1022_7)"/>
<path d="M1104.42 1749.34C1455.51 1749.34 1740.12 1464.72 1740.12 1113.64C1740.12 762.548 1455.51 477.935 1104.42 477.935C753.33 477.935 468.717 762.548 468.717 1113.64C468.717 1464.72 753.33 1749.34 1104.42 1749.34Z" fill="url(#paint1_radial_1022_7)"/>
<g filter="url(#filter0_f_1022_7)">
<path d="M387.71 821.285C340.173 1099.6 725.23 860.104 812.386 801.279C1051.14 519.788 1739.92 269.914 1649.64 166.964C1559.36 64.0144 447.13 473.386 387.71 821.285Z" fill="url(#paint2_linear_1022_7)" fill-opacity="0.75"/>
</g>
<path d="M1105.29 1556.34C1217 1556.25 1324.57 1514.05 1406.54 1438.16C1488.51 1362.26 1538.87 1258.26 1547.56 1146.89C1556.25 1035.52 1522.64 924.966 1453.43 837.277C1384.23 749.588 1284.51 691.209 1174.17 673.783C1063.82 656.358 950.968 681.166 858.106 743.261C765.245 805.356 699.202 900.173 673.151 1008.8C647.099 1117.43 662.953 1231.89 717.551 1329.35C772.148 1426.81 861.477 1500.1 967.72 1534.62C1012.15 1549.04 1058.58 1556.37 1105.29 1556.34Z" stroke="black" stroke-width="1.5" stroke-miterlimit="10"/>
<path d="M1105.29 1437.69C1187.16 1437.6 1265.99 1406.66 1326.06 1351.03C1386.13 1295.4 1423.03 1219.17 1429.38 1137.54C1435.74 1055.92 1411.1 974.897 1360.37 910.635C1309.64 846.372 1236.55 803.593 1155.68 790.828C1074.81 778.063 992.101 796.251 924.044 841.764C855.988 887.277 807.588 956.771 788.497 1036.39C769.405 1116 781.025 1199.89 821.039 1271.32C861.054 1342.74 926.521 1396.46 1004.39 1421.76C1036.97 1432.35 1071.03 1437.72 1105.29 1437.69Z" stroke="black" stroke-width="1.5" stroke-miterlimit="10"/>
<path d="M1105.29 1674.97C1194.24 1674.95 1281.92 1653.88 1361.18 1613.49C1440.43 1573.1 1509 1514.53 1561.29 1442.57C1613.58 1370.61 1648.11 1287.3 1662.04 1199.44C1675.98 1111.59 1668.93 1021.69 1641.48 937.076C1614.03 852.423 1566.93 775.474 1504.02 712.53C1441.12 649.585 1364.2 602.436 1279.56 574.943C1194.92 547.449 1104.98 540.394 1017.09 554.354C929.2 568.313 845.868 602.892 773.916 655.257C677.547 725.196 605.806 823.859 568.983 937.095C532.16 1050.33 532.147 1172.32 568.948 1285.56C605.748 1398.81 677.469 1497.49 773.824 1567.44C870.178 1637.4 986.215 1675.04 1105.29 1674.97V1674.97Z" stroke="black" stroke-width="1.5" stroke-miterlimit="10"/>
<path d="M1130.61 784.822C1130.61 784.822 1105.29 777.859 1105.29 752.386C1105.29 777.859 1079.97 784.822 1079.97 784.822H1130.61Z" fill="black"/>
<path d="M1431.72 1136.6C1431.72 1136.6 1438.69 1111.28 1464.16 1111.28C1438.69 1111.28 1431.72 1085.96 1431.72 1085.96V1136.6Z" fill="black"/>
<path d="M1079.97 1437.69C1079.97 1437.69 1105.29 1444.65 1105.29 1470.15C1105.29 1444.65 1130.61 1437.69 1130.61 1437.69H1079.97Z" fill="black"/>
<path d="M778.853 1085.91C778.853 1085.91 771.889 1111.23 746.392 1111.23C771.889 1111.23 778.853 1136.55 778.853 1136.55V1085.91Z" fill="black"/>
<path d="M899.532 714.837C899.532 714.837 865.147 724.965 846.789 695.492C865.147 725.016 840.813 751.349 840.813 751.349L899.532 714.837Z" fill="black"/>
<path d="M1501.71 905.501C1501.71 905.501 1491.58 871.116 1521.06 852.784C1491.53 871.141 1465.2 846.808 1465.2 846.808L1501.71 905.501Z" fill="black"/>
<path d="M1311.04 1507.68C1311.04 1507.68 1345.43 1497.55 1363.79 1527.02C1345.43 1497.5 1369.76 1471.19 1369.76 1471.19L1311.04 1507.68Z" fill="black"/>
<path d="M708.868 1317.01C708.868 1317.01 718.996 1351.4 689.523 1369.76C719.047 1351.4 745.228 1375.73 745.228 1375.73L708.868 1317.01Z" fill="black"/>
<path d="M1149.02 547.948C1149.02 547.948 1105.29 535.921 1105.29 491.939C1105.29 535.921 1061.56 547.948 1061.56 547.948H1149.02Z" fill="black"/>
<path d="M1668.6 1154.99C1668.6 1154.99 1680.62 1111.26 1724.61 1111.26C1680.62 1111.26 1668.6 1067.53 1668.6 1067.53V1154.99Z" fill="black"/>
<path d="M1061.56 1674.57C1061.56 1674.57 1105.29 1686.59 1105.29 1730.58C1105.29 1686.59 1149.02 1674.57 1149.02 1674.57H1061.56Z" fill="black"/>
<path d="M541.98 1067.53C541.98 1067.53 529.953 1111.26 485.971 1111.26C529.953 1111.26 541.98 1154.99 541.98 1154.99V1067.53Z" fill="black"/>
<path d="M1311.04 714.837C1311.04 714.837 1345.43 724.965 1363.79 695.492C1345.43 725.016 1369.76 751.349 1369.76 751.349L1311.04 714.837Z" fill="black"/>
<path d="M708.868 905.501C708.868 905.501 718.996 871.116 689.523 852.784C719.047 871.141 745.228 846.808 745.228 846.808L708.868 905.501Z" fill="black"/>
<path d="M899.532 1507.68C899.532 1507.68 865.147 1497.55 846.789 1527.02C865.147 1497.5 840.813 1471.19 840.813 1471.19L899.532 1507.68Z" fill="black"/>
<path d="M1501.71 1317.01C1501.71 1317.01 1491.58 1351.4 1521.06 1369.76C1491.53 1351.4 1465.2 1375.73 1465.2 1375.73L1501.71 1317.01Z" fill="black"/>
<path d="M1105.29 1556.34C1217 1556.25 1324.56 1514.05 1406.54 1438.16C1488.51 1362.27 1538.87 1258.26 1547.56 1146.89C1556.25 1035.52 1522.64 924.968 1453.43 837.279C1384.23 749.589 1284.51 691.21 1174.17 673.785C1063.82 656.359 950.967 681.168 858.106 743.262C765.244 805.357 699.202 900.174 673.151 1008.8C647.099 1117.43 662.953 1231.89 717.551 1329.35C772.148 1426.81 861.477 1500.1 967.72 1534.62C1012.15 1549.04 1058.58 1556.37 1105.29 1556.34Z" stroke="black" stroke-width="1.5" stroke-miterlimit="10"/>
<path d="M1105.29 1437.69C1187.16 1437.61 1265.99 1406.66 1326.06 1351.03C1386.13 1295.4 1423.02 1219.17 1429.38 1137.55C1435.74 1055.92 1411.1 974.898 1360.37 910.636C1309.64 846.373 1236.55 803.594 1155.68 790.829C1074.81 778.064 992.097 796.252 924.041 841.765C855.984 887.278 807.584 956.772 788.493 1036.39C769.401 1116 781.021 1199.89 821.036 1271.32C861.05 1342.74 926.518 1396.46 1004.38 1421.76C1036.97 1432.35 1071.02 1437.72 1105.29 1437.69Z" stroke="black" stroke-width="1.5" stroke-miterlimit="10"/>
<path d="M1105.62 925.455L1119.72 752.059L1120.18 926.012L1147.85 754.262L1134.68 927.734L1175.73 758.693L1148.99 930.595L1203.2 765.276L1163.04 934.545L1230.04 774.012L1176.72 939.609L1256.12 784.799L1189.96 945.711L1281.27 797.611L1202.7 952.827L1305.35 812.373L1214.82 960.954L1328.18 828.958L1226.29 969.969L1349.63 847.29L1237 979.894L1369.61 867.243L1246.91 990.605L1387.94 888.715L1255.94 1002.05L1404.53 911.554L1264.05 1014.18L1419.26 935.634L1271.19 1026.91L1432.08 960.777L1277.29 1040.18L1442.89 986.857L1282.35 1053.86L1451.62 1013.7L1286.3 1067.91L1458.21 1041.14L1289.14 1082.22L1462.61 1069.02L1290.86 1096.7L1464.84 1097.18L1291.44 1111.28L1464.84 1125.41L1290.86 1125.87L1462.61 1153.54L1289.14 1140.35L1458.21 1181.42L1286.3 1154.66L1451.62 1208.87L1282.35 1168.71L1442.89 1235.71L1277.29 1182.41L1432.08 1261.79L1271.19 1195.65L1419.26 1286.96L1264.05 1208.39L1404.53 1311.01L1255.94 1220.52L1387.94 1333.85L1246.91 1231.99L1369.61 1355.32L1237 1242.7L1349.63 1375.28L1226.29 1252.6L1328.18 1393.61L1214.82 1261.64L1305.35 1410.19L1202.7 1269.74L1281.27 1424.96L1189.96 1276.85L1256.12 1437.77L1176.72 1282.98L1230.04 1448.58L1163.04 1288.02L1203.2 1457.29L1148.99 1292L1175.73 1463.87L1134.68 1294.83L1147.85 1468.3L1120.18 1296.55L1119.72 1470.51L1105.62 1297.11L1091.49 1470.51L1091.03 1296.55L1063.36 1468.3L1076.52 1294.83L1035.48 1463.87L1062.22 1292L1008.03 1457.29L1048.19 1288.02L981.165 1448.58L1034.49 1282.98L955.085 1437.77L1021.25 1276.85L929.941 1424.96L1008.51 1269.74L905.887 1410.19L996.383 1261.64L883.022 1393.61L984.913 1252.6L861.576 1375.28L974.202 1242.7L841.623 1355.32L964.302 1231.99L823.291 1333.85L955.262 1220.52L806.681 1311.01L947.159 1208.39L791.944 1286.96L940.019 1195.65L779.132 1261.79L933.917 1182.41L768.32 1235.71L928.853 1168.71L759.584 1208.87L924.903 1154.66L753.001 1181.42L922.067 1140.35L748.595 1153.54L920.345 1125.87L746.367 1125.41L919.762 1111.28L746.367 1097.18L920.345 1096.7L748.595 1069.02L922.067 1082.22L753.001 1041.14L924.903 1067.91L759.584 1013.7L928.853 1053.86L768.32 986.857L933.917 1040.18L779.132 960.777L940.019 1026.91L791.944 935.634L947.159 1014.18L806.681 911.554L955.262 1002.05L823.291 888.715L964.302 990.605L841.623 867.243L974.202 979.894L861.576 847.29L984.913 969.969L883.022 828.958L996.383 960.954L905.887 812.373L1008.51 952.827L929.941 797.611L1021.25 945.711L955.085 784.799L1034.49 939.609L981.165 774.012L1048.19 934.545L1008.03 765.276L1062.22 930.595L1035.48 758.693L1076.52 927.734L1063.36 754.262L1091.03 926.012L1091.49 752.059L1105.62 925.455Z" fill="#A1A4AE"/>
<path d="M1105.29 1229.99C1175.08 1229.99 1231.66 1173.41 1231.66 1103.61C1231.66 1033.82 1175.08 977.236 1105.29 977.236C1035.49 977.236 978.911 1033.82 978.911 1103.61C978.911 1173.41 1035.49 1229.99 1105.29 1229.99Z" fill="black"/>
<path d="M1668.14 1111.16H1668.95H1667.53C1666.16 1111.07 1664.78 1111.07 1663.4 1111.16H1665.94H1663.4C1664.78 1111.24 1666.16 1111.24 1667.53 1111.16H1668.95H1668.14Z" fill="#3195D2"/>
<path d="M1663.41 1111.08C1569.24 1105.69 1561.87 962.955 1561.87 962.955L1500.29 982.933C1527.56 1089.46 1391.92 1108.98 1374.19 1111.06H1372.27H1373.18H1372.27H1374.19C1391.92 1113.13 1527.56 1132.65 1500.29 1239.18L1561.79 1259.16C1561.79 1259.16 1569.16 1116.42 1663.33 1111.03H1662.22L1663.41 1111.08Z" fill="#3195D2"/>
<path d="M542.384 1111.16H541.574H542.992C544.367 1111.24 545.745 1111.24 547.119 1111.16H544.587H547.119C545.745 1111.07 544.367 1111.07 542.992 1111.16H541.574H542.384Z" fill="#3195D2"/>
<path d="M547.117 1111.26C641.285 1116.65 648.628 1259.38 648.628 1259.38L710.132 1239.41C682.887 1132.88 818.529 1113.36 836.254 1111.28H838.178H837.266H838.178H836.254C818.529 1109.21 682.887 1089.68 710.132 983.161L648.628 963.183C648.628 963.183 641.285 1105.92 547.117 1111.31C547.446 1111.31 547.851 1111.31 548.231 1111.31L547.117 1111.26Z" fill="#3195D2"/>
<path d="M1105.01 1111.08L1096.04 1120.04C1101.79 1114.42 1105.01 1111.08 1105.01 1111.08Z" fill="#B8D46F"/>
<path d="M1096.04 1120.04C1056.87 1158.51 899.885 1305.19 840.584 1245.89C840.584 1245.89 886.465 1329.65 790.298 1425.79L1096.04 1120.04Z" fill="#B8D46F"/>
<path d="M790.35 1425.84C886.569 1329.62 970.254 1375.56 970.254 1375.56C910.953 1316.25 1057.64 1159.27 1096.1 1120.1L790.35 1425.84Z" fill="#B8D46F"/>
<path d="M1096.1 1120.09L1105.06 1111.13C1105.06 1111.13 1101.72 1114.37 1096.1 1120.09Z" fill="#B8D46F"/>
<path d="M1104.8 1110.9L1113.77 1119.87C1108.15 1114.22 1104.8 1110.9 1104.8 1110.9Z" fill="#B8D46F"/>
<path d="M1239.61 1375.4C1239.61 1375.4 1323.35 1329.52 1419.51 1425.69L1113.77 1119.94C1152.23 1159.01 1298.91 1316 1239.61 1375.4Z" fill="#B8D46F"/>
<path d="M1369.28 1245.74C1309.98 1305.04 1152.99 1158.35 1113.82 1119.89L1419.57 1425.64C1323.4 1329.5 1369.28 1245.74 1369.28 1245.74Z" fill="#B8D46F"/>
<path d="M1113.82 1119.89L1104.86 1110.9C1104.86 1110.9 1108.07 1114.27 1113.82 1119.89Z" fill="#B8D46F"/>
<path d="M1105.06 1111.13L1114.02 1102.17C1108.28 1107.81 1105.06 1111.13 1105.06 1111.13Z" fill="#B8D46F"/>
<path d="M1368.37 975.337C1368.37 975.337 1322.49 891.576 1418.66 795.408L1114.02 1102.17C1153.17 1063.71 1309.07 915.934 1368.37 975.337Z" fill="#B8D46F"/>
<path d="M1238.67 845.645C1298 904.946 1152.43 1062.97 1113.97 1102.12L1418.6 795.358C1322.44 891.526 1238.67 845.645 1238.67 845.645Z" fill="#B8D46F"/>
<path d="M1113.97 1102.12L1105.01 1111.08C1105.01 1111.08 1108.32 1107.86 1113.97 1102.12Z" fill="#B8D46F"/>
<path d="M1105.03 1111.16L1096.07 1102.19C1101.69 1107.94 1105.03 1111.16 1105.03 1111.16Z" fill="#B8D46F"/>
<path d="M970.227 846.734C970.227 846.734 886.466 892.615 790.324 796.447L1096.07 1102.19C1057.61 1063.02 910.926 906.035 970.227 846.734Z" fill="#B8D46F"/>
<path d="M840.559 976.399C899.86 917.098 1056.85 1063.78 1096.02 1102.24L790.272 796.496C886.44 892.663 840.559 976.399 840.559 976.399Z" fill="#B8D46F"/>
<path d="M1096.02 1102.24L1104.98 1111.21C1104.98 1111.21 1101.74 1107.86 1096.02 1102.24Z" fill="#B8D46F"/>
<path d="M1388.07 556.381L1361.2 609.124C1361.2 609.124 1531.48 683.44 1379.59 837.01L1377.96 838.656L1378.8 837.846L1377.99 838.681L1379.61 837.035C1533.26 685.112 1607.5 855.444 1607.5 855.444L1660.24 828.578C1631.06 770.051 1592.41 716.743 1545.87 670.805C1545.56 670.577 1483.37 603.275 1388.07 556.381Z" fill="black"/>
<path d="M822.456 1666.39L849.321 1613.64C849.321 1613.64 679.04 1539.33 830.938 1385.76L832.559 1384.14L831.723 1384.92L832.534 1384.11L830.913 1385.73C677.267 1537.66 603.027 1367.35 603.027 1367.35L550.31 1394.19C597.33 1489.52 664.632 1551.71 664.86 1551.91C665.088 1552.12 727.149 1619.37 822.456 1666.39Z" fill="black"/>
<path d="M550.18 828.477L602.923 855.342C602.923 855.342 677.239 685.06 830.809 836.959L832.455 838.58L831.644 837.769L832.455 838.554L830.834 836.934C678.91 683.288 849.242 609.048 849.242 609.048L822.453 556.229C727.146 603.249 664.933 670.552 664.731 670.78C664.528 671.007 597.201 733.17 550.18 828.477Z" fill="black"/>
<path d="M1660.37 1394.14L1607.62 1367.28C1607.62 1367.28 1533.28 1537.56 1379.74 1385.66L1378.12 1384.04L1378.93 1384.87L1378.09 1384.06L1379.71 1385.68C1531.64 1539.33 1361.33 1613.57 1361.33 1613.57L1388.19 1666.29C1483.5 1619.27 1545.69 1551.96 1545.89 1551.74C1546.09 1551.51 1613.34 1489.45 1660.37 1394.14Z" fill="black"/>
<path d="M1279.04 1646.56L1279.39 1647.27C1279.24 1646.81 1279.06 1646.41 1278.91 1645.95C1278.68 1645.04 1278.28 1643.7 1277.67 1642.03C1277.87 1642.84 1278.15 1643.68 1278.38 1644.56C1278.1 1643.75 1277.82 1642.92 1277.52 1642.03C1277.87 1643.35 1278.3 1644.66 1278.81 1645.93C1278.96 1646.38 1279.06 1646.84 1279.21 1647.3C1279.21 1647.35 1279.16 1647.07 1279.04 1646.56Z" fill="#3195D2"/>
<path d="M1277.67 1642.03C1253.72 1550.87 1387.21 1499.73 1387.21 1499.73L1349.23 1447.39C1256.35 1506.21 1195.91 1383.2 1188.44 1367L1187.83 1365.17L1188.03 1366.06L1187.65 1365.25C1187.86 1365.86 1188.03 1366.46 1188.24 1367.05C1191.71 1384.57 1215.03 1519.6 1105.31 1526.57V1591.24C1105.31 1591.24 1243.33 1554.17 1277.49 1642.08C1277.49 1641.75 1277.31 1641.35 1277.21 1640.99L1277.67 1642.03Z" fill="#3195D2"/>
<path d="M931.461 575.776C931.259 575.295 931.132 575.042 931.132 575.042C931.284 575.523 931.461 575.928 931.613 576.384C931.95 577.715 932.364 579.026 932.854 580.309C932.626 579.498 932.373 578.663 932.145 577.777C932.423 578.587 932.702 579.422 933.006 580.309C932.649 578.986 932.218 577.684 931.714 576.409C931.563 575.954 931.461 575.498 931.309 575.042L931.461 575.776Z" fill="#3195D2"/>
<path d="M932.852 580.309C956.78 671.463 823.315 722.611 823.315 722.611L861.296 774.949C954.198 716.129 1014.64 839.111 1022.11 855.342C1022.31 855.95 1022.51 856.532 1022.72 857.165L1022.51 856.279L1022.89 857.089C1022.69 856.481 1022.51 855.874 1022.31 855.266C1018.82 837.769 995.521 702.734 1105.24 695.746V631.102C1105.24 631.102 967.212 668.172 933.055 580.258C933.055 580.587 933.232 580.993 933.333 581.347C933.106 581.018 933.106 580.638 932.852 580.309Z" fill="#3195D2"/>
<path d="M931.054 1646.41L930.902 1647.22C931.054 1646.76 931.155 1646.31 931.307 1645.85C931.806 1644.58 932.237 1643.27 932.598 1641.95C932.294 1642.74 932.016 1643.57 931.737 1644.36C931.965 1643.55 932.244 1642.71 932.446 1641.83C931.956 1643.11 931.542 1644.42 931.206 1645.75C931.054 1646.18 930.877 1646.61 930.725 1647.07C930.725 1647.14 930.851 1646.89 931.054 1646.41Z" fill="#3195D2"/>
<path d="M932.6 1641.95C966.884 1554.07 1104.78 1591.31 1104.78 1591.31V1526.57C995.066 1519.53 1018.49 1384.52 1021.98 1367.05C1022.18 1366.44 1022.36 1365.83 1022.56 1365.22L1022.18 1366.06C1022.18 1365.48 1022.39 1365.17 1022.39 1365.17L1021.78 1366.97C1014.31 1383.2 953.768 1506.23 860.917 1447.26L822.937 1499.55C822.937 1499.55 956.376 1550.72 932.372 1641.95C932.499 1641.62 932.651 1641.24 932.803 1640.92C932.778 1641.22 932.702 1641.62 932.6 1641.95Z" fill="#3195D2"/>
<path d="M1279.44 575.929C1279.57 575.398 1279.62 575.119 1279.62 575.119C1279.47 575.575 1279.37 576.031 1279.21 576.486C1278.7 577.758 1278.27 579.06 1277.92 580.386C1278.23 579.601 1278.5 578.765 1278.78 577.854C1278.55 578.689 1278.28 579.525 1278.07 580.386C1278.68 578.715 1279.09 577.373 1279.31 576.461C1279.47 576.005 1279.64 575.6 1279.8 575.144L1279.44 575.929Z" fill="#3195D2"/>
<path d="M1277.92 580.385C1243.64 668.273 1105.74 631.026 1105.74 631.026V695.695C1215.43 702.734 1192.03 837.744 1188.51 855.215C1188.34 855.823 1188.16 856.43 1187.96 857.038L1188.31 856.202C1188.31 856.785 1188.14 857.089 1188.14 857.089L1188.74 855.291C1196.21 839.06 1256.75 716.027 1349.6 774.999L1387.59 722.712C1387.59 722.712 1254.17 671.539 1278.18 580.309L1277.74 581.347C1277.74 581.119 1277.82 580.714 1277.92 580.385Z" fill="#3195D2"/>
<path d="M1105.29 1674.97C1194.24 1674.95 1281.92 1653.88 1361.18 1613.49C1440.43 1573.1 1509 1514.53 1561.29 1442.57C1613.58 1370.61 1648.11 1287.3 1662.04 1199.45C1675.98 1111.59 1668.93 1021.69 1641.48 937.077C1614.03 852.424 1566.93 775.475 1504.02 712.531C1441.12 649.586 1364.2 602.437 1279.56 574.944C1194.92 547.45 1104.98 540.395 1017.09 554.355C929.2 568.314 845.868 602.893 773.916 655.258C677.547 725.197 605.805 823.86 568.982 937.096C532.159 1050.33 532.147 1172.32 568.947 1285.56C605.747 1398.81 677.469 1497.49 773.823 1567.44C870.178 1637.4 986.214 1675.04 1105.29 1674.97V1674.97Z" stroke="black" stroke-width="1.5" stroke-miterlimit="10"/>
<path d="M1288.68 1675.73C1288.68 1675.73 1359.58 1656.92 1454.05 1591.36C1454.05 1591.36 1301.95 1412.83 1267.82 1428.15C1233.69 1443.47 1288.68 1675.73 1288.68 1675.73Z" fill="#ED2024"/>
<path d="M1252.15 659.714C1107.82 608.845 1105.41 488.192 1105.41 488.192C1105.41 488.192 1103.11 608.845 958.679 659.714C958.679 659.714 883.907 682.807 826.353 727.219L843.799 751.274C843.799 751.274 872.665 721.421 967.87 687.972C967.87 687.972 1105.39 629.988 1105.39 992.656C1105.29 629.937 1242.8 688.048 1242.8 688.048C1338.03 721.547 1366.87 751.35 1366.87 751.35L1384.32 727.295C1326.79 682.807 1252.15 659.714 1252.15 659.714Z" fill="#ED2024"/>
<path d="M1105.29 1348.61C1138.05 1348.61 1164.61 1322.05 1164.61 1289.29C1164.61 1256.52 1138.05 1229.96 1105.29 1229.96C1072.52 1229.96 1045.96 1256.52 1045.96 1289.29C1045.96 1322.05 1072.52 1348.61 1105.29 1348.61Z" fill="#ED2024"/>
<path d="M1105.29 1704.47C1105.29 1704.47 1178.56 1708.88 1288.76 1676.19C1288.76 1676.19 1200.29 1459.01 1163.07 1462.84C1125.85 1466.66 1105.29 1704.47 1105.29 1704.47Z" fill="#ED2024"/>
<path d="M921.815 1675.73C921.815 1675.73 850.917 1656.92 756.446 1591.36C756.446 1591.36 908.547 1412.83 942.679 1428.15C976.811 1443.47 921.815 1675.73 921.815 1675.73Z" fill="#ED2024"/>
<path d="M1105.29 1704.47C1105.29 1704.47 1031.99 1708.88 921.79 1676.19C921.79 1676.19 1010.41 1459.01 1047.51 1462.84C1084.6 1466.66 1105.29 1704.47 1105.29 1704.47Z" fill="#ED2024"/>
<defs>
<filter id="filter0_f_1022_7" x="233.662" y="0.811035" width="1574.08" height="1102.36" filterUnits="userSpaceOnUse" color-interpolation-filters="sRGB">
<feFlood flood-opacity="0" result="BackgroundImageFix"/>
<feBlend mode="normal" in="SourceGraphic" in2="BackgroundImageFix" result="shape"/>
<feGaussianBlur stdDeviation="75" result="effect1_foregroundBlur_1022_7"/>
</filter>
<linearGradient id="paint0_linear_1022_7" x1="600.725" y1="608.021" x2="1594.78" y2="1749.34" gradientUnits="userSpaceOnUse">
<stop stop-color="#283D7F"/>
<stop offset="1" stop-color="#192650"/>
</linearGradient>
<radialGradient id="paint1_radial_1022_7" cx="0" cy="0" r="1" gradientUnits="userSpaceOnUse" gradientTransform="translate(1839.81 1230.77) rotate(134.617) scale(652.654 874.307)">
<stop stop-color="white" stop-opacity="0"/>
<stop offset="1" stop-opacity="0.34"/>
</radialGradient>
<linearGradient id="paint2_linear_1022_7" x1="517.352" y1="1065.61" x2="1960.79" y2="-177.977" gradientUnits="userSpaceOnUse">
<stop stop-color="#EA3223"/>
<stop offset="1" stop-opacity="0"/>
</linearGradient>
</defs>
</svg>
